<svg xmlns="http://www.w3.org/2000/svg" viewBox="0 0 100 100"><defs><clipPath id="c"><rect x="2" y="2" width="96" height="96" rx="22"/></clipPath></defs><rect x="2" y="2" width="96" height="96" rx="22" fill="#15151C"/><g clip-path="url(#c)"><g transform="translate(50 54) scale(1.25) translate(-50 -40)"><path d="M36 56 C30 68 16 74 11 65 C8 59 14 56 17 61" fill="none" stroke="#A78BFA" stroke-width="9" stroke-linecap="round"/><path d="M45 60 C44 72 38 82 30 82 C25 82 25 76 29 76" fill="none" stroke="#A78BFA" stroke-width="9" stroke-linecap="round"/><path d="M55 60 C56 72 62 82 70 82 C75 82 75 76 71 76" fill="none" stroke="#A78BFA" stroke-width="9" stroke-linecap="round"/><path d="M64 56 C70 68 84 74 89 65 C92 59 86 56 83 61" fill="none" stroke="#A78BFA" stroke-width="9" stroke-linecap="round"/><path d="M50 10 C70 10 76 18 76 34 L76 46 C76 58 68 62 50 62 C32 62 24 58 24 46 L24 34 C24 18 30 10 50 10 Z" fill="#A78BFA"/><rect x="37.3" y="38" width="5.4" height="9.4" rx="2.7" fill="#121217"/><rect x="57.3" y="38" width="5.4" height="9.4" rx="2.7" fill="#121217"/></g></g></svg>